<mxfile host="Electron" modified="2024-06-25T13:40:36.564Z" agent="Mozilla/5.0 (Windows NT 10.0; Win64; x64) AppleWebKit/537.36 (KHTML, like Gecko) draw.io/24.4.0 Chrome/120.0.6099.109 Electron/28.1.0 Safari/537.36" etag="W7uz0FaIqUkPsfMJtGhq" version="24.4.0" type="device">
  <diagram name="Page-1" id="NNDggglJmrsRrY-VEPbw">
    <mxGraphModel dx="1940" dy="5646" grid="1" gridSize="10" guides="1" tooltips="1" connect="1" arrows="1" fold="1" page="1" pageScale="1" pageWidth="1654" pageHeight="1169" math="0" shadow="0">
      <root>
        <mxCell id="0" />
        <mxCell id="1" parent="0" />
        <mxCell id="2xEIKdCf7XDx3oVFN4fz-15" value="Film" style="swimlane;fontStyle=0;childLayout=stackLayout;horizontal=1;startSize=30;horizontalStack=0;resizeParent=1;resizeParentMax=0;resizeLast=0;collapsible=1;marginBottom=0;whiteSpace=wrap;html=1;fillColor=#ffe6cc;strokeColor=#d79b00;" vertex="1" parent="1">
          <mxGeometry x="560" y="400" width="140" height="180" as="geometry" />
        </mxCell>
        <mxCell id="2xEIKdCf7XDx3oVFN4fz-16" value="idFilm" style="text;strokeColor=#9673a6;fillColor=#e1d5e7;align=left;verticalAlign=middle;spacingLeft=4;spacingRight=4;overflow=hidden;points=[[0,0.5],[1,0.5]];portConstraint=eastwest;rotatable=0;whiteSpace=wrap;html=1;" vertex="1" parent="2xEIKdCf7XDx3oVFN4fz-15">
          <mxGeometry y="30" width="140" height="30" as="geometry" />
        </mxCell>
        <mxCell id="2xEIKdCf7XDx3oVFN4fz-17" value="titre" style="text;strokeColor=none;fillColor=none;align=left;verticalAlign=middle;spacingLeft=4;spacingRight=4;overflow=hidden;points=[[0,0.5],[1,0.5]];portConstraint=eastwest;rotatable=0;whiteSpace=wrap;html=1;" vertex="1" parent="2xEIKdCf7XDx3oVFN4fz-15">
          <mxGeometry y="60" width="140" height="30" as="geometry" />
        </mxCell>
        <mxCell id="2xEIKdCf7XDx3oVFN4fz-65" value="description" style="text;strokeColor=none;fillColor=none;align=left;verticalAlign=middle;spacingLeft=4;spacingRight=4;overflow=hidden;points=[[0,0.5],[1,0.5]];portConstraint=eastwest;rotatable=0;whiteSpace=wrap;html=1;" vertex="1" parent="2xEIKdCf7XDx3oVFN4fz-15">
          <mxGeometry y="90" width="140" height="30" as="geometry" />
        </mxCell>
        <mxCell id="2xEIKdCf7XDx3oVFN4fz-66" value="duree" style="text;strokeColor=none;fillColor=none;align=left;verticalAlign=middle;spacingLeft=4;spacingRight=4;overflow=hidden;points=[[0,0.5],[1,0.5]];portConstraint=eastwest;rotatable=0;whiteSpace=wrap;html=1;" vertex="1" parent="2xEIKdCf7XDx3oVFN4fz-15">
          <mxGeometry y="120" width="140" height="30" as="geometry" />
        </mxCell>
        <mxCell id="2xEIKdCf7XDx3oVFN4fz-67" value="image" style="text;strokeColor=none;fillColor=none;align=left;verticalAlign=middle;spacingLeft=4;spacingRight=4;overflow=hidden;points=[[0,0.5],[1,0.5]];portConstraint=eastwest;rotatable=0;whiteSpace=wrap;html=1;" vertex="1" parent="2xEIKdCf7XDx3oVFN4fz-15">
          <mxGeometry y="150" width="140" height="30" as="geometry" />
        </mxCell>
        <mxCell id="2xEIKdCf7XDx3oVFN4fz-19" value="" style="endArrow=none;html=1;rounded=0;entryX=0;entryY=0.5;entryDx=0;entryDy=0;exitX=1;exitY=0.5;exitDx=0;exitDy=0;" edge="1" parent="1" source="2xEIKdCf7XDx3oVFN4fz-26" target="2xEIKdCf7XDx3oVFN4fz-24">
          <mxGeometry width="50" height="50" relative="1" as="geometry">
            <mxPoint x="220" y="444.9999999999998" as="sourcePoint" />
            <mxPoint x="250" y="445" as="targetPoint" />
          </mxGeometry>
        </mxCell>
        <mxCell id="2xEIKdCf7XDx3oVFN4fz-20" value="" style="endArrow=none;html=1;rounded=0;exitX=1;exitY=0.5;exitDx=0;exitDy=0;entryX=0;entryY=0.5;entryDx=0;entryDy=0;" edge="1" parent="1" source="2xEIKdCf7XDx3oVFN4fz-23" target="2xEIKdCf7XDx3oVFN4fz-16">
          <mxGeometry width="50" height="50" relative="1" as="geometry">
            <mxPoint x="330" y="445" as="sourcePoint" />
            <mxPoint x="360" y="444.77" as="targetPoint" />
          </mxGeometry>
        </mxCell>
        <mxCell id="2xEIKdCf7XDx3oVFN4fz-21" value="Note" style="swimlane;fontStyle=0;childLayout=stackLayout;horizontal=1;startSize=30;horizontalStack=0;resizeParent=1;resizeParentMax=0;resizeLast=0;collapsible=1;marginBottom=0;whiteSpace=wrap;html=1;fillColor=#ffe6cc;strokeColor=#d79b00;" vertex="1" parent="1">
          <mxGeometry x="320" y="400" width="140" height="150" as="geometry" />
        </mxCell>
        <mxCell id="2xEIKdCf7XDx3oVFN4fz-22" value="id" style="text;strokeColor=#9673a6;fillColor=#e1d5e7;align=left;verticalAlign=middle;spacingLeft=4;spacingRight=4;overflow=hidden;points=[[0,0.5],[1,0.5]];portConstraint=eastwest;rotatable=0;whiteSpace=wrap;html=1;" vertex="1" parent="2xEIKdCf7XDx3oVFN4fz-21">
          <mxGeometry y="30" width="140" height="30" as="geometry" />
        </mxCell>
        <mxCell id="2xEIKdCf7XDx3oVFN4fz-23" value="idFilm" style="text;strokeColor=#d6b656;fillColor=#fff2cc;align=left;verticalAlign=middle;spacingLeft=4;spacingRight=4;overflow=hidden;points=[[0,0.5],[1,0.5]];portConstraint=eastwest;rotatable=0;whiteSpace=wrap;html=1;" vertex="1" parent="2xEIKdCf7XDx3oVFN4fz-21">
          <mxGeometry y="60" width="140" height="30" as="geometry" />
        </mxCell>
        <mxCell id="2xEIKdCf7XDx3oVFN4fz-24" value="idUtilisateur" style="text;strokeColor=#d6b656;fillColor=#fff2cc;align=left;verticalAlign=middle;spacingLeft=4;spacingRight=4;overflow=hidden;points=[[0,0.5],[1,0.5]];portConstraint=eastwest;rotatable=0;whiteSpace=wrap;html=1;" vertex="1" parent="2xEIKdCf7XDx3oVFN4fz-21">
          <mxGeometry y="90" width="140" height="30" as="geometry" />
        </mxCell>
        <mxCell id="2xEIKdCf7XDx3oVFN4fz-64" value="valeur" style="text;align=left;verticalAlign=middle;spacingLeft=4;spacingRight=4;overflow=hidden;points=[[0,0.5],[1,0.5]];portConstraint=eastwest;rotatable=0;whiteSpace=wrap;html=1;" vertex="1" parent="2xEIKdCf7XDx3oVFN4fz-21">
          <mxGeometry y="120" width="140" height="30" as="geometry" />
        </mxCell>
        <mxCell id="2xEIKdCf7XDx3oVFN4fz-25" value="Utilisateur" style="swimlane;fontStyle=0;childLayout=stackLayout;horizontal=1;startSize=30;horizontalStack=0;resizeParent=1;resizeParentMax=0;resizeLast=0;collapsible=1;marginBottom=0;whiteSpace=wrap;html=1;fillColor=#ffe6cc;strokeColor=#d79b00;" vertex="1" parent="1">
          <mxGeometry x="80" y="400" width="140" height="180" as="geometry" />
        </mxCell>
        <mxCell id="2xEIKdCf7XDx3oVFN4fz-26" value="idUtilisateur" style="text;strokeColor=#9673a6;fillColor=#e1d5e7;align=left;verticalAlign=middle;spacingLeft=4;spacingRight=4;overflow=hidden;points=[[0,0.5],[1,0.5]];portConstraint=eastwest;rotatable=0;whiteSpace=wrap;html=1;" vertex="1" parent="2xEIKdCf7XDx3oVFN4fz-25">
          <mxGeometry y="30" width="140" height="30" as="geometry" />
        </mxCell>
        <mxCell id="2xEIKdCf7XDx3oVFN4fz-28" value="image" style="text;strokeColor=none;fillColor=none;align=left;verticalAlign=middle;spacingLeft=4;spacingRight=4;overflow=hidden;points=[[0,0.5],[1,0.5]];portConstraint=eastwest;rotatable=0;whiteSpace=wrap;html=1;" vertex="1" parent="2xEIKdCf7XDx3oVFN4fz-25">
          <mxGeometry y="60" width="140" height="30" as="geometry" />
        </mxCell>
        <mxCell id="2xEIKdCf7XDx3oVFN4fz-61" value="nom" style="text;strokeColor=none;fillColor=none;align=left;verticalAlign=middle;spacingLeft=4;spacingRight=4;overflow=hidden;points=[[0,0.5],[1,0.5]];portConstraint=eastwest;rotatable=0;whiteSpace=wrap;html=1;" vertex="1" parent="2xEIKdCf7XDx3oVFN4fz-25">
          <mxGeometry y="90" width="140" height="30" as="geometry" />
        </mxCell>
        <mxCell id="2xEIKdCf7XDx3oVFN4fz-62" value="email" style="text;strokeColor=none;fillColor=none;align=left;verticalAlign=middle;spacingLeft=4;spacingRight=4;overflow=hidden;points=[[0,0.5],[1,0.5]];portConstraint=eastwest;rotatable=0;whiteSpace=wrap;html=1;" vertex="1" parent="2xEIKdCf7XDx3oVFN4fz-25">
          <mxGeometry y="120" width="140" height="30" as="geometry" />
        </mxCell>
        <mxCell id="2xEIKdCf7XDx3oVFN4fz-63" value="password" style="text;strokeColor=none;fillColor=none;align=left;verticalAlign=middle;spacingLeft=4;spacingRight=4;overflow=hidden;points=[[0,0.5],[1,0.5]];portConstraint=eastwest;rotatable=0;whiteSpace=wrap;html=1;" vertex="1" parent="2xEIKdCf7XDx3oVFN4fz-25">
          <mxGeometry y="150" width="140" height="30" as="geometry" />
        </mxCell>
        <mxCell id="2xEIKdCf7XDx3oVFN4fz-30" value="MCD" style="rounded=0;whiteSpace=wrap;html=1;fillColor=#f8cecc;strokeColor=#b85450;" vertex="1" parent="1">
          <mxGeometry x="80" y="80" width="70" height="30" as="geometry" />
        </mxCell>
        <mxCell id="2xEIKdCf7XDx3oVFN4fz-31" value="MLD" style="rounded=0;whiteSpace=wrap;html=1;fillColor=#f8cecc;strokeColor=#b85450;" vertex="1" parent="1">
          <mxGeometry x="80" y="360" width="70" height="30" as="geometry" />
        </mxCell>
        <mxCell id="2xEIKdCf7XDx3oVFN4fz-39" value="Film" style="swimlane;fontStyle=0;childLayout=stackLayout;horizontal=1;startSize=30;horizontalStack=0;resizeParent=1;resizeParentMax=0;resizeLast=0;collapsible=1;marginBottom=0;whiteSpace=wrap;html=1;fillColor=#ffe6cc;strokeColor=#d79b00;" vertex="1" parent="1">
          <mxGeometry x="480" y="120" width="140" height="180" as="geometry" />
        </mxCell>
        <mxCell id="2xEIKdCf7XDx3oVFN4fz-40" value="idFilm" style="text;strokeColor=#9673a6;fillColor=#e1d5e7;align=left;verticalAlign=middle;spacingLeft=4;spacingRight=4;overflow=hidden;points=[[0,0.5],[1,0.5]];portConstraint=eastwest;rotatable=0;whiteSpace=wrap;html=1;" vertex="1" parent="2xEIKdCf7XDx3oVFN4fz-39">
          <mxGeometry y="30" width="140" height="30" as="geometry" />
        </mxCell>
        <mxCell id="2xEIKdCf7XDx3oVFN4fz-41" value="titre" style="text;strokeColor=none;fillColor=none;align=left;verticalAlign=middle;spacingLeft=4;spacingRight=4;overflow=hidden;points=[[0,0.5],[1,0.5]];portConstraint=eastwest;rotatable=0;whiteSpace=wrap;html=1;" vertex="1" parent="2xEIKdCf7XDx3oVFN4fz-39">
          <mxGeometry y="60" width="140" height="30" as="geometry" />
        </mxCell>
        <mxCell id="2xEIKdCf7XDx3oVFN4fz-42" value="description" style="text;strokeColor=none;fillColor=none;align=left;verticalAlign=middle;spacingLeft=4;spacingRight=4;overflow=hidden;points=[[0,0.5],[1,0.5]];portConstraint=eastwest;rotatable=0;whiteSpace=wrap;html=1;" vertex="1" parent="2xEIKdCf7XDx3oVFN4fz-39">
          <mxGeometry y="90" width="140" height="30" as="geometry" />
        </mxCell>
        <mxCell id="2xEIKdCf7XDx3oVFN4fz-54" value="duree" style="text;strokeColor=none;fillColor=none;align=left;verticalAlign=middle;spacingLeft=4;spacingRight=4;overflow=hidden;points=[[0,0.5],[1,0.5]];portConstraint=eastwest;rotatable=0;whiteSpace=wrap;html=1;" vertex="1" parent="2xEIKdCf7XDx3oVFN4fz-39">
          <mxGeometry y="120" width="140" height="30" as="geometry" />
        </mxCell>
        <mxCell id="2xEIKdCf7XDx3oVFN4fz-55" value="image" style="text;strokeColor=none;fillColor=none;align=left;verticalAlign=middle;spacingLeft=4;spacingRight=4;overflow=hidden;points=[[0,0.5],[1,0.5]];portConstraint=eastwest;rotatable=0;whiteSpace=wrap;html=1;" vertex="1" parent="2xEIKdCf7XDx3oVFN4fz-39">
          <mxGeometry y="150" width="140" height="30" as="geometry" />
        </mxCell>
        <mxCell id="2xEIKdCf7XDx3oVFN4fz-43" value="Utilisateur" style="swimlane;fontStyle=0;childLayout=stackLayout;horizontal=1;startSize=30;horizontalStack=0;resizeParent=1;resizeParentMax=0;resizeLast=0;collapsible=1;marginBottom=0;whiteSpace=wrap;html=1;fillColor=#ffe6cc;strokeColor=#d79b00;" vertex="1" parent="1">
          <mxGeometry x="80" y="120" width="140" height="180" as="geometry" />
        </mxCell>
        <mxCell id="2xEIKdCf7XDx3oVFN4fz-44" value="idUtilisateur" style="text;strokeColor=#9673a6;fillColor=#e1d5e7;align=left;verticalAlign=middle;spacingLeft=4;spacingRight=4;overflow=hidden;points=[[0,0.5],[1,0.5]];portConstraint=eastwest;rotatable=0;whiteSpace=wrap;html=1;" vertex="1" parent="2xEIKdCf7XDx3oVFN4fz-43">
          <mxGeometry y="30" width="140" height="30" as="geometry" />
        </mxCell>
        <mxCell id="2xEIKdCf7XDx3oVFN4fz-45" value="image" style="text;strokeColor=none;fillColor=none;align=left;verticalAlign=middle;spacingLeft=4;spacingRight=4;overflow=hidden;points=[[0,0.5],[1,0.5]];portConstraint=eastwest;rotatable=0;whiteSpace=wrap;html=1;" vertex="1" parent="2xEIKdCf7XDx3oVFN4fz-43">
          <mxGeometry y="60" width="140" height="30" as="geometry" />
        </mxCell>
        <mxCell id="2xEIKdCf7XDx3oVFN4fz-46" value="nom" style="text;strokeColor=none;fillColor=none;align=left;verticalAlign=middle;spacingLeft=4;spacingRight=4;overflow=hidden;points=[[0,0.5],[1,0.5]];portConstraint=eastwest;rotatable=0;whiteSpace=wrap;html=1;" vertex="1" parent="2xEIKdCf7XDx3oVFN4fz-43">
          <mxGeometry y="90" width="140" height="30" as="geometry" />
        </mxCell>
        <mxCell id="2xEIKdCf7XDx3oVFN4fz-52" value="email" style="text;strokeColor=none;fillColor=none;align=left;verticalAlign=middle;spacingLeft=4;spacingRight=4;overflow=hidden;points=[[0,0.5],[1,0.5]];portConstraint=eastwest;rotatable=0;whiteSpace=wrap;html=1;" vertex="1" parent="2xEIKdCf7XDx3oVFN4fz-43">
          <mxGeometry y="120" width="140" height="30" as="geometry" />
        </mxCell>
        <mxCell id="2xEIKdCf7XDx3oVFN4fz-53" value="password" style="text;strokeColor=none;fillColor=none;align=left;verticalAlign=middle;spacingLeft=4;spacingRight=4;overflow=hidden;points=[[0,0.5],[1,0.5]];portConstraint=eastwest;rotatable=0;whiteSpace=wrap;html=1;" vertex="1" parent="2xEIKdCf7XDx3oVFN4fz-43">
          <mxGeometry y="150" width="140" height="30" as="geometry" />
        </mxCell>
        <mxCell id="2xEIKdCf7XDx3oVFN4fz-47" value="note&lt;div&gt;&lt;br&gt;&lt;/div&gt;&lt;div&gt;valeur&lt;/div&gt;" style="ellipse;whiteSpace=wrap;html=1;fillColor=#d5e8d4;strokeColor=#82b366;" vertex="1" parent="1">
          <mxGeometry x="310" y="125.94" width="80" height="78.13" as="geometry" />
        </mxCell>
        <mxCell id="2xEIKdCf7XDx3oVFN4fz-48" value="" style="endArrow=none;html=1;rounded=0;entryX=0;entryY=0.5;entryDx=0;entryDy=0;exitX=1;exitY=0.5;exitDx=0;exitDy=0;" edge="1" parent="1" source="2xEIKdCf7XDx3oVFN4fz-44" target="2xEIKdCf7XDx3oVFN4fz-47">
          <mxGeometry width="50" height="50" relative="1" as="geometry">
            <mxPoint x="240" y="160" as="sourcePoint" />
            <mxPoint x="280" y="70" as="targetPoint" />
          </mxGeometry>
        </mxCell>
        <mxCell id="2xEIKdCf7XDx3oVFN4fz-49" value="" style="endArrow=none;html=1;rounded=0;exitX=1;exitY=0.5;exitDx=0;exitDy=0;entryX=0;entryY=0.5;entryDx=0;entryDy=0;" edge="1" parent="1" source="2xEIKdCf7XDx3oVFN4fz-47" target="2xEIKdCf7XDx3oVFN4fz-40">
          <mxGeometry width="50" height="50" relative="1" as="geometry">
            <mxPoint x="390" y="70.23" as="sourcePoint" />
            <mxPoint x="460" y="150" as="targetPoint" />
          </mxGeometry>
        </mxCell>
        <mxCell id="2xEIKdCf7XDx3oVFN4fz-50" value="&lt;span style=&quot;background-color: initial;&quot;&gt;0,n&lt;/span&gt;" style="text;strokeColor=none;align=center;fillColor=none;html=1;verticalAlign=middle;whiteSpace=wrap;rounded=0;" vertex="1" parent="1">
          <mxGeometry x="220" y="180" width="20" height="30" as="geometry" />
        </mxCell>
        <mxCell id="2xEIKdCf7XDx3oVFN4fz-51" value="0,n" style="text;strokeColor=none;align=center;fillColor=none;html=1;verticalAlign=middle;whiteSpace=wrap;rounded=0;" vertex="1" parent="1">
          <mxGeometry x="460" y="180" width="20" height="30" as="geometry" />
        </mxCell>
        <mxCell id="2xEIKdCf7XDx3oVFN4fz-56" value="" style="endArrow=none;html=1;rounded=0;exitX=0;exitY=0.5;exitDx=0;exitDy=0;entryX=1;entryY=0.5;entryDx=0;entryDy=0;" edge="1" parent="1" source="2xEIKdCf7XDx3oVFN4fz-47" target="2xEIKdCf7XDx3oVFN4fz-47">
          <mxGeometry width="50" height="50" relative="1" as="geometry">
            <mxPoint x="360" y="360" as="sourcePoint" />
            <mxPoint x="410" y="310" as="targetPoint" />
          </mxGeometry>
        </mxCell>
        <mxCell id="2xEIKdCf7XDx3oVFN4fz-68" value="logout.php" style="rounded=0;whiteSpace=wrap;html=1;fillColor=#f8cecc;strokeColor=#b85450;" vertex="1" parent="1">
          <mxGeometry x="122" y="-1883" width="120" height="60" as="geometry" />
        </mxCell>
        <mxCell id="2xEIKdCf7XDx3oVFN4fz-69" value="accueil.php" style="rounded=0;whiteSpace=wrap;html=1;fillColor=#ffe6cc;strokeColor=#d79b00;" vertex="1" parent="1">
          <mxGeometry x="802" y="-1883" width="120" height="60" as="geometry" />
        </mxCell>
        <mxCell id="2xEIKdCf7XDx3oVFN4fz-71" value="rechercher.php" style="rounded=0;whiteSpace=wrap;html=1;fillColor=#fff2cc;strokeColor=#d6b656;" vertex="1" parent="1">
          <mxGeometry x="1042" y="-1883" width="120" height="60" as="geometry" />
        </mxCell>
        <mxCell id="2xEIKdCf7XDx3oVFN4fz-74" value="" style="endArrow=classic;html=1;rounded=0;exitX=1;exitY=0.5;exitDx=0;exitDy=0;entryX=0;entryY=0.5;entryDx=0;entryDy=0;" edge="1" parent="1" source="2xEIKdCf7XDx3oVFN4fz-69" target="2xEIKdCf7XDx3oVFN4fz-71">
          <mxGeometry width="50" height="50" relative="1" as="geometry">
            <mxPoint x="802" y="-1563" as="sourcePoint" />
            <mxPoint x="852" y="-1613" as="targetPoint" />
          </mxGeometry>
        </mxCell>
        <mxCell id="2xEIKdCf7XDx3oVFN4fz-75" value="inserer.php" style="rounded=0;whiteSpace=wrap;html=1;fillColor=#fff2cc;strokeColor=#d6b656;" vertex="1" parent="1">
          <mxGeometry x="1042" y="-1793" width="120" height="60" as="geometry" />
        </mxCell>
        <mxCell id="2xEIKdCf7XDx3oVFN4fz-77" value="" style="endArrow=classic;html=1;rounded=0;exitX=0.5;exitY=1;exitDx=0;exitDy=0;entryX=0;entryY=0.5;entryDx=0;entryDy=0;" edge="1" parent="1" source="2xEIKdCf7XDx3oVFN4fz-69" target="2xEIKdCf7XDx3oVFN4fz-75">
          <mxGeometry width="50" height="50" relative="1" as="geometry">
            <mxPoint x="802" y="-1563" as="sourcePoint" />
            <mxPoint x="852" y="-1613" as="targetPoint" />
            <Array as="points">
              <mxPoint x="862" y="-1763" />
            </Array>
          </mxGeometry>
        </mxCell>
        <mxCell id="2xEIKdCf7XDx3oVFN4fz-78" value="inscription.php" style="rounded=0;whiteSpace=wrap;html=1;fillColor=#fff2cc;strokeColor=#d6b656;" vertex="1" parent="1">
          <mxGeometry x="1042" y="-1703" width="120" height="60" as="geometry" />
        </mxCell>
        <mxCell id="2xEIKdCf7XDx3oVFN4fz-80" value="" style="endArrow=classic;html=1;rounded=0;entryX=0;entryY=0.5;entryDx=0;entryDy=0;" edge="1" parent="1" target="2xEIKdCf7XDx3oVFN4fz-78">
          <mxGeometry width="50" height="50" relative="1" as="geometry">
            <mxPoint x="862" y="-1763" as="sourcePoint" />
            <mxPoint x="852" y="-1613" as="targetPoint" />
            <Array as="points">
              <mxPoint x="862" y="-1673" />
            </Array>
          </mxGeometry>
        </mxCell>
        <mxCell id="2xEIKdCf7XDx3oVFN4fz-83" value="login.php" style="rounded=0;whiteSpace=wrap;html=1;fillColor=#d5e8d4;strokeColor=#82b366;" vertex="1" parent="1">
          <mxGeometry x="562" y="-1883" width="120" height="60" as="geometry" />
        </mxCell>
        <mxCell id="2xEIKdCf7XDx3oVFN4fz-85" value="" style="endArrow=classic;startArrow=classic;html=1;rounded=0;entryX=0;entryY=0.5;entryDx=0;entryDy=0;exitX=1;exitY=0.5;exitDx=0;exitDy=0;" edge="1" parent="1" source="2xEIKdCf7XDx3oVFN4fz-83" target="2xEIKdCf7XDx3oVFN4fz-69">
          <mxGeometry width="50" height="50" relative="1" as="geometry">
            <mxPoint x="642" y="-1763" as="sourcePoint" />
            <mxPoint x="692" y="-1813" as="targetPoint" />
          </mxGeometry>
        </mxCell>
        <mxCell id="2xEIKdCf7XDx3oVFN4fz-86" value="" style="endArrow=classic;startArrow=classic;html=1;rounded=0;entryX=0;entryY=0.5;entryDx=0;entryDy=0;exitX=1;exitY=0.5;exitDx=0;exitDy=0;" edge="1" parent="1" source="2xEIKdCf7XDx3oVFN4fz-68" target="2xEIKdCf7XDx3oVFN4fz-83">
          <mxGeometry width="50" height="50" relative="1" as="geometry">
            <mxPoint x="572" y="-1773" as="sourcePoint" />
            <mxPoint x="622" y="-1823" as="targetPoint" />
          </mxGeometry>
        </mxCell>
        <mxCell id="2xEIKdCf7XDx3oVFN4fz-87" value="" style="endArrow=classic;html=1;rounded=0;exitX=0.5;exitY=1;exitDx=0;exitDy=0;entryX=0.5;entryY=1;entryDx=0;entryDy=0;" edge="1" parent="1" source="2xEIKdCf7XDx3oVFN4fz-68" target="2xEIKdCf7XDx3oVFN4fz-78">
          <mxGeometry width="50" height="50" relative="1" as="geometry">
            <mxPoint x="672" y="-1673" as="sourcePoint" />
            <mxPoint x="722" y="-1723" as="targetPoint" />
            <Array as="points">
              <mxPoint x="182" y="-1433" />
              <mxPoint x="1102" y="-1433" />
            </Array>
          </mxGeometry>
        </mxCell>
        <mxCell id="2xEIKdCf7XDx3oVFN4fz-88" value="" style="endArrow=classic;html=1;rounded=0;exitX=0.5;exitY=0;exitDx=0;exitDy=0;entryX=0.5;entryY=0;entryDx=0;entryDy=0;" edge="1" parent="1" source="2xEIKdCf7XDx3oVFN4fz-68" target="2xEIKdCf7XDx3oVFN4fz-71">
          <mxGeometry width="50" height="50" relative="1" as="geometry">
            <mxPoint x="662" y="-1723" as="sourcePoint" />
            <mxPoint x="712" y="-1773" as="targetPoint" />
            <Array as="points">
              <mxPoint x="182" y="-2073" />
              <mxPoint x="1102" y="-2073" />
            </Array>
          </mxGeometry>
        </mxCell>
        <mxCell id="2xEIKdCf7XDx3oVFN4fz-89" value="rechercherTraitement.php" style="rounded=0;whiteSpace=wrap;html=1;fillColor=#dae8fc;strokeColor=#6c8ebf;" vertex="1" parent="1">
          <mxGeometry x="1242" y="-1883" width="240" height="60" as="geometry" />
        </mxCell>
        <mxCell id="2xEIKdCf7XDx3oVFN4fz-90" value="insererTraitement.php" style="rounded=0;whiteSpace=wrap;html=1;fillColor=#dae8fc;strokeColor=#6c8ebf;" vertex="1" parent="1">
          <mxGeometry x="1242" y="-1793" width="240" height="60" as="geometry" />
        </mxCell>
        <mxCell id="2xEIKdCf7XDx3oVFN4fz-91" value="inscriptionTraitement.php" style="rounded=0;whiteSpace=wrap;html=1;fillColor=#dae8fc;strokeColor=#6c8ebf;" vertex="1" parent="1">
          <mxGeometry x="1242" y="-1703" width="240" height="60" as="geometry" />
        </mxCell>
        <mxCell id="2xEIKdCf7XDx3oVFN4fz-92" value="" style="endArrow=none;html=1;rounded=0;exitX=1;exitY=0.5;exitDx=0;exitDy=0;entryX=0;entryY=0.5;entryDx=0;entryDy=0;" edge="1" parent="1" source="2xEIKdCf7XDx3oVFN4fz-78" target="2xEIKdCf7XDx3oVFN4fz-91">
          <mxGeometry width="50" height="50" relative="1" as="geometry">
            <mxPoint x="1162" y="-1703" as="sourcePoint" />
            <mxPoint x="1212" y="-1753" as="targetPoint" />
          </mxGeometry>
        </mxCell>
        <mxCell id="2xEIKdCf7XDx3oVFN4fz-93" value="" style="endArrow=none;html=1;rounded=0;exitX=1;exitY=0.5;exitDx=0;exitDy=0;entryX=0;entryY=0.5;entryDx=0;entryDy=0;" edge="1" parent="1" source="2xEIKdCf7XDx3oVFN4fz-75" target="2xEIKdCf7XDx3oVFN4fz-90">
          <mxGeometry width="50" height="50" relative="1" as="geometry">
            <mxPoint x="1162" y="-1703" as="sourcePoint" />
            <mxPoint x="1212" y="-1753" as="targetPoint" />
          </mxGeometry>
        </mxCell>
        <mxCell id="2xEIKdCf7XDx3oVFN4fz-94" value="" style="endArrow=none;html=1;rounded=0;entryX=0;entryY=0.5;entryDx=0;entryDy=0;exitX=1;exitY=0.5;exitDx=0;exitDy=0;" edge="1" parent="1" source="2xEIKdCf7XDx3oVFN4fz-71" target="2xEIKdCf7XDx3oVFN4fz-89">
          <mxGeometry width="50" height="50" relative="1" as="geometry">
            <mxPoint x="1162" y="-1703" as="sourcePoint" />
            <mxPoint x="1212" y="-1753" as="targetPoint" />
          </mxGeometry>
        </mxCell>
        <mxCell id="2xEIKdCf7XDx3oVFN4fz-95" value="loginTraitement.php" style="rounded=0;whiteSpace=wrap;html=1;fillColor=#dae8fc;strokeColor=#6c8ebf;" vertex="1" parent="1">
          <mxGeometry x="502" y="-1763" width="240" height="60" as="geometry" />
        </mxCell>
        <mxCell id="2xEIKdCf7XDx3oVFN4fz-96" value="" style="endArrow=none;html=1;rounded=0;entryX=0.5;entryY=1;entryDx=0;entryDy=0;exitX=0.5;exitY=0;exitDx=0;exitDy=0;" edge="1" parent="1" source="2xEIKdCf7XDx3oVFN4fz-95" target="2xEIKdCf7XDx3oVFN4fz-83">
          <mxGeometry width="50" height="50" relative="1" as="geometry">
            <mxPoint x="522" y="-1753" as="sourcePoint" />
            <mxPoint x="572" y="-1803" as="targetPoint" />
          </mxGeometry>
        </mxCell>
        <mxCell id="2xEIKdCf7XDx3oVFN4fz-97" value="" style="endArrow=none;dashed=1;html=1;rounded=0;" edge="1" parent="1" source="2xEIKdCf7XDx3oVFN4fz-99">
          <mxGeometry width="50" height="50" relative="1" as="geometry">
            <mxPoint x="362" y="-1553" as="sourcePoint" />
            <mxPoint x="362" y="-1553" as="targetPoint" />
            <Array as="points">
              <mxPoint x="1532" y="-1553" />
              <mxPoint x="1532" y="-1993" />
              <mxPoint x="362" y="-1993" />
            </Array>
          </mxGeometry>
        </mxCell>
        <mxCell id="2xEIKdCf7XDx3oVFN4fz-100" value="" style="endArrow=none;dashed=1;html=1;rounded=0;" edge="1" parent="1" target="2xEIKdCf7XDx3oVFN4fz-99">
          <mxGeometry width="50" height="50" relative="1" as="geometry">
            <mxPoint x="362" y="-1553" as="sourcePoint" />
            <mxPoint x="362" y="-1553" as="targetPoint" />
            <Array as="points" />
          </mxGeometry>
        </mxCell>
        <mxCell id="2xEIKdCf7XDx3oVFN4fz-99" value="checkSession.php" style="rounded=0;whiteSpace=wrap;html=1;fillColor=#e1d5e7;strokeColor=#9673a6;" vertex="1" parent="1">
          <mxGeometry x="422" y="-1583" width="120" height="60" as="geometry" />
        </mxCell>
        <mxCell id="2xEIKdCf7XDx3oVFN4fz-101" value="nav.php" style="ellipse;whiteSpace=wrap;html=1;strokeWidth=2;strokeColor=#EA6B66;" vertex="1" parent="1">
          <mxGeometry x="562" y="-1972" width="120" height="50" as="geometry" />
        </mxCell>
        <mxCell id="2xEIKdCf7XDx3oVFN4fz-102" value="" style="endArrow=none;html=1;rounded=0;entryX=0.5;entryY=0;entryDx=0;entryDy=0;exitX=0.5;exitY=1;exitDx=0;exitDy=0;strokeColor=#EA6B66;strokeWidth=2;" edge="1" parent="1" source="2xEIKdCf7XDx3oVFN4fz-101" target="2xEIKdCf7XDx3oVFN4fz-83">
          <mxGeometry width="50" height="50" relative="1" as="geometry">
            <mxPoint x="582" y="-1813" as="sourcePoint" />
            <mxPoint x="632" y="-1863" as="targetPoint" />
          </mxGeometry>
        </mxCell>
        <mxCell id="2xEIKdCf7XDx3oVFN4fz-103" value="" style="endArrow=none;html=1;rounded=0;entryX=0;entryY=0.5;entryDx=0;entryDy=0;strokeColor=#EA6B66;strokeWidth=2;" edge="1" parent="1" target="2xEIKdCf7XDx3oVFN4fz-101">
          <mxGeometry width="50" height="50" relative="1" as="geometry">
            <mxPoint x="182" y="-1947" as="sourcePoint" />
            <mxPoint x="462" y="-1883" as="targetPoint" />
          </mxGeometry>
        </mxCell>
        <mxCell id="2xEIKdCf7XDx3oVFN4fz-104" value="" style="endArrow=none;html=1;rounded=0;entryX=0.5;entryY=0;entryDx=0;entryDy=0;exitX=1;exitY=0.5;exitDx=0;exitDy=0;strokeColor=#EA6B66;strokeWidth=2;" edge="1" parent="1" source="2xEIKdCf7XDx3oVFN4fz-101" target="2xEIKdCf7XDx3oVFN4fz-69">
          <mxGeometry width="50" height="50" relative="1" as="geometry">
            <mxPoint x="852" y="-1813" as="sourcePoint" />
            <mxPoint x="902" y="-1863" as="targetPoint" />
            <Array as="points">
              <mxPoint x="862" y="-1947" />
            </Array>
          </mxGeometry>
        </mxCell>
        <mxCell id="2xEIKdCf7XDx3oVFN4fz-106" value="" style="endArrow=none;html=1;rounded=0;strokeColor=#EA6B66;strokeWidth=2;" edge="1" parent="1">
          <mxGeometry width="50" height="50" relative="1" as="geometry">
            <mxPoint x="862" y="-1913" as="sourcePoint" />
            <mxPoint x="1202" y="-1913" as="targetPoint" />
          </mxGeometry>
        </mxCell>
        <mxCell id="2xEIKdCf7XDx3oVFN4fz-107" value="" style="endArrow=none;html=1;rounded=0;strokeColor=#EA6B66;strokeWidth=2;" edge="1" parent="1">
          <mxGeometry width="50" height="50" relative="1" as="geometry">
            <mxPoint x="982" y="-1673" as="sourcePoint" />
            <mxPoint x="982" y="-1913" as="targetPoint" />
          </mxGeometry>
        </mxCell>
        <mxCell id="2xEIKdCf7XDx3oVFN4fz-108" value="" style="endArrow=none;html=1;rounded=0;strokeColor=#EA6B66;strokeWidth=2;" edge="1" parent="1">
          <mxGeometry width="50" height="50" relative="1" as="geometry">
            <mxPoint x="1202" y="-1673" as="sourcePoint" />
            <mxPoint x="1202" y="-1913" as="targetPoint" />
          </mxGeometry>
        </mxCell>
      </root>
    </mxGraphModel>
  </diagram>
</mxfile>
